PathFileType	4	(X/Y/Z)	/Users/itak/Documents/Research/Walk-IL/dataset/trc/00502_00183.trc
DataRate	CameraRate	NumFrames	NumMarkers	Units	OrigDataRate	OrigDataStartFrame	OrigNumFrames
100.000000	100.000000	4	53	mm	100.000000	353	706
Frame#	Time	RPSI			LPSI			L3			STRN			T10			C7			CLAV			RBAK			LBAK			LSHO			LUPA			LAEL			LAOL			LWTS			LWPS			LFRA			LIFD			LHPS			LHTS			RSHO			RUPA			RAEL			RAOL			RWTS			RWPS			RFRA			RIFD			RHTS			RHPS			RBHD			LFHD			RFHD			LBHD			LHIP			RHIP			RASI			LASI			LKNE			LTHI			LANK			LTIP			LTOE			LMT1			LMT5			LHEE			RKNE			RTHI			RANK			RTIP			RTOE			RMT1			RMT5			RHEE			
		X1	Y1	Z1	X2	Y2	Z2	X3	Y3	Z3	X4	Y4	Z4	X5	Y5	Z5	X6	Y6	Z6	X7	Y7	Z7	X8	Y8	Z8	X9	Y9	Z9	X10	Y10	Z10	X11	Y11	Z11	X12	Y12	Z12	X13	Y13	Z13	X14	Y14	Z14	X15	Y15	Z15	X16	Y16	Z16	X17	Y17	Z17	X18	Y18	Z18	X19	Y19	Z19	X20	Y20	Z20	X21	Y21	Z21	X22	Y22	Z22	X23	Y23	Z23	X24	Y24	Z24	X25	Y25	Z25	X26	Y26	Z26	X27	Y27	Z27	X28	Y28	Z28	X29	Y29	Z29	X30	Y30	Z30	X31	Y31	Z31	X32	Y32	Z32	X33	Y33	Z33	X34	Y34	Z34	X35	Y35	Z35	X36	Y36	Z36	X37	Y37	Z37	X38	Y38	Z38	X39	Y39	Z39	X40	Y40	Z40	X41	Y41	Z41	X42	Y42	Z42	X43	Y43	Z43	X44	Y44	Z44	X45	Y45	Z45	X46	Y46	Z46	X47	Y47	Z47	X48	Y48	Z48	X49	Y49	Z49	X50	Y50	Z50	X51	Y51	Z51	X52	Y52	Z52	X53	Y53	Z53	

354	3.53	-695.65576171875	947.7353515625	-166.6681060791016	-638.8425903320312	942.8396606445312	-277.1855163574219	-669.0247192382812	1020.247436523438	-222.5404663085938	-464.9754028320312	1178.31982421875	-136.3526763916016	-682.1336059570312	1126.051513671875	-221.1156158447266	-637.042236328125	1354.365966796875	-198.7358245849609	-496.5132751464844	1273.521118164062	-147.737060546875	-717.2908325195312	1234.078857421875	-137.1822204589844	-632.1300659179688	1302.0576171875	-290.5984191894531	-515.73828125	1344.213256835938	-326.287841796875	-505.5712280273438	1218.12548828125	-387.407470703125	-488.463134765625	1008.24951171875	-410.3574523925781	-579.5667114257812	999.144775390625	-374.1427917480469	-415.0650329589844	819.4423828125	-352.5903625488281	-485.3836059570312	781.592041015625	-401.9179077148438	-473.9267578125	924.8440551757812	-406.561279296875	-413.1510009765625	663.3088989257812	-333.8886413574219	-461.9998474121094	728.1411743164062	-391.607421875	-402.6568298339844	741.0752563476562	-366.7799987792969	-637.5248413085938	1345.53564453125	-39.45347595214844	-673.3190307617188	1277.867553710938	8.190121650695801	-678.79931640625	1008.835693359375	50.18719100952148	-720.6491088867188	992.4944458007812	1.277811765670776	-562.5687866210938	810.693359375	36.69081497192383	-646.294677734375	784.7003784179688	64.989013671875	-673.7193603515625	953.8534545898438	56.74172973632812	-557.71728515625	650.2482299804688	32.11012268066406	-551.1705932617188	715.5359497070312	59.6697998046875	-621.9371948242188	711.3944091796875	67.97719573974609	-619.4580688476562	1508.929443359375	-106.7240219116211	-452.2571105957031	1564.212890625	-202.7532806396484	-495.6559448242188	1564.960327148438	-83.03887176513672	-578.7651977539062	1503.225952148438	-260.8572998046875	-475.4400329589844	876.732177734375	-337.414794921875	-662.4146118164062	849.1328125	-8.684364318847656	-542.2609252929688	893.9688720703125	-16.56958198547363	-435.4493408203125	913.94677734375	-232.5396270751953	-340.6275024414062	488.4114379882812	-248.0496063232422	-383.5786437988281	634.1618041992188	-289.7066650390625	-284.6843872070312	53.29853820800781	-238.5954437255859	-311.6801452636719	339.0867004394531	-251.1114654541016	-145.7650909423828	107.793342590332	-110.5117034912109	-218.8090057373047	82.34380340576172	-105.2924728393555	-185.5129547119141	74.38681793212891	-205.3417816162109	-349.6272277832031	42.49124908447266	-197.7468872070312	-669.9596557617188	464.3882751464844	-77.51288604736328	-645.2514038085938	718.0953979492188	-3.36753249168396	-796.0684204101562	57.1871452331543	-196.4867095947266	-682.6138305664062	321.6173706054688	-117.0529861450195	-599.1287841796875	41.02453231811523	-147.0591583251953	-641.3939208984375	46.38580322265625	-211.1170196533203	-702.0714721679688	45.51036071777344	-134.7302551269531	-824.7840576171875	55.85912704467773	-261.5859985351562	
355	3.54	-690.509765625	947.4841918945312	-166.5605010986328	-633.236083984375	942.485107421875	-276.8390808105469	-663.6464233398438	1019.824829101562	-222.2359466552734	-459.9034118652344	1177.763061523438	-135.3089447021484	-676.7547607421875	1125.631591796875	-220.8250579833984	-631.6731567382812	1353.904907226562	-198.2171630859375	-491.3240966796875	1272.9873046875	-146.7620544433594	-712.1544799804688	1233.646118164062	-136.9416809082031	-626.4384155273438	1301.636962890625	-290.0795288085938	-509.9394226074219	1343.76123046875	-325.3889465332031	-499.5986328125	1217.687622070312	-386.4796752929688	-482.4534606933594	1007.792907714844	-409.3830871582031	-573.7053833007812	998.7311401367188	-373.4833679199219	-409.4243774414062	818.9103393554688	-351.2807922363281	-479.6322326660156	781.1686401367188	-401.0325622558594	-467.9319763183594	924.3685913085938	-405.5365905761719	-407.6714477539062	662.7783203125	-332.70458984375	-456.1962280273438	727.6986083984375	-390.5785827636719	-396.9677734375	740.5516967773438	-365.4958190917969	-632.6685791015625	1345.071655273438	-38.96711730957031	-668.6461791992188	1277.423095703125	8.568404197692871	-674.7145385742188	1008.411376953125	50.47724914550781	-716.313232421875	992.1439208984375	1.334223031997681	-558.7510375976562	810.10107421875	37.55463027954102	-642.6693115234375	784.1884155273438	65.38120269775391	-669.78173828125	953.4274291992188	57.06321334838867	-554.056884765625	649.63525390625	32.91190338134766	-547.6087036132812	714.8875122070312	60.56790924072266	-618.4066162109375	710.8345336914062	68.43466949462891	-614.3524780273438	1508.469116210938	-106.1464385986328	-447.0981140136719	1563.770385742188	-202.0753631591797	-490.6209106445312	1564.617919921875	-82.39453887939453	-573.47900390625	1502.573120117188	-260.2039184570312	-469.780517578125	876.13720703125	-336.4609680175781	-658.1089477539062	848.9037475585938	-8.438830375671387	-537.7640991210938	893.4302978515625	-15.84133815765381	-430.1011352539062	913.28564453125	-231.3676452636719	-336.2166442871094	487.5280151367188	-246.2696990966797	-378.4801940917969	633.3936157226562	-288.1663208007812	-282.3681030273438	52.38434982299805	-237.0278930664062	-307.8088073730469	337.9768676757812	-249.26123046875	-143.0251922607422	105.4961471557617	-108.7572021484375	-216.2179412841797	80.45496368408203	-103.5183944702148	-183.1373443603516	72.79030609130859	-203.6585540771484	-347.3150024414062	41.68071365356445	-196.1156463623047	-667.0458984375	464.3629455566406	-77.25685882568359	-641.3607177734375	717.8416748046875	-3.116913795471191	-795.8388671875	57.86538314819336	-196.4234924316406	-680.5966186523438	321.6705627441406	-116.831901550293	-599.1254272460938	41.01072311401367	-146.9941711425781	-641.2763061523438	46.46663665771484	-211.0956878662109	-701.9179077148438	45.69381713867188	-134.6455993652344	-824.5992431640625	56.92845153808594	-261.5262756347656	
356	3.55	-685.228759765625	947.2569580078125	-166.4982147216797	-627.4652099609375	942.1362915039062	-276.547607421875	-658.1002807617188	1019.40625	-221.9758453369141	-454.7059631347656	1177.223266601562	-134.2834930419922	-671.2260131835938	1125.208618164062	-220.5846405029297	-626.1898803710938	1353.450073242188	-197.7427978515625	-486.0103759765625	1272.463500976562	-145.8144378662109	-706.8973388671875	1233.2060546875	-136.7462005615234	-620.6226196289062	1301.215209960938	-289.5982666015625	-503.9984436035156	1343.302001953125	-324.5141906738281	-493.5293579101562	1217.25390625	-385.5885620117188	-476.340087890625	1007.345031738281	-408.4563293457031	-567.7239990234375	998.3184204101562	-372.851806640625	-403.6412963867188	818.3992309570312	-349.9680786132812	-473.7610168457031	780.7509765625	-400.1523132324219	-461.8276672363281	923.892333984375	-404.5462951660156	-402.0508728027344	662.2784423828125	-331.5490417480469	-450.2601318359375	727.290283203125	-389.5728149414062	-391.1535949707031	740.049072265625	-364.2161865234375	-627.7174072265625	1344.614379882812	-38.52288818359375	-663.8710327148438	1276.984741210938	8.906122207641602	-670.5130004882812	1008.003051757812	50.76532745361328	-711.8562622070312	991.7935180664062	1.392802119255066	-554.8407592773438	809.5009765625	38.36159896850586	-638.9354858398438	783.6966552734375	65.78636932373047	-665.7145385742188	953.00927734375	57.38442993164062	-550.34326171875	649.015625	33.68498229980469	-543.9578247070312	714.2396240234375	61.41678237915039	-614.784423828125	710.2904663085938	68.90573120117188	-609.1698608398438	1508.008056640625	-105.6035690307617	-441.86572265625	1563.360473632812	-201.4219055175781	-485.5285034179688	1564.30810546875	-81.78506469726562	-568.1270751953125	1501.930908203125	-259.5819091796875	-463.9568176269531	875.5226440429688	-335.5205688476562	-653.7071533203125	848.710693359375	-8.259251594543457	-533.168701171875	892.9219970703125	-15.11442184448242	-424.6064758300781	912.61083984375	-230.1808013916016	-331.8090209960938	486.5701904296875	-244.5105895996094	-373.3196716308594	632.5568237304688	-286.648681640625	-280.5569152832031	51.40813446044922	-235.7459259033203	-304.1466979980469	336.7391052246094	-247.5321960449219	-140.7283477783203	102.8518524169922	-107.223258972168	-214.0886077880859	78.31321716308594	-102.0053253173828	-181.2315368652344	70.97183990478516	-202.2188415527344	-345.4825134277344	40.82881927490234	-194.7935638427734	-664.0780639648438	464.3759460449219	-76.99318695068359	-637.4146118164062	717.6319580078125	-2.90591287612915	-795.5779418945312	58.60797119140625	-196.3665466308594	-678.5438232421875	321.7634582519531	-116.6142578125	-599.1153564453125	40.99615478515625	-146.9324645996094	-641.1375732421875	46.56665420532227	-211.0703125	-701.7528076171875	45.89283752441406	-134.5494995117188	-824.3915405273438	58.08304595947266	-261.4627685546875	
357	3.56	-679.801025390625	947.051513671875	-166.4752349853516	-621.5398559570312	941.7972412109375	-276.3033752441406	-652.3839721679688	1018.997192382812	-221.7635498046875	-449.3829650878906	1176.703002929688	-133.2770690917969	-665.5433959960938	1124.786010742188	-220.3968200683594	-620.5890502929688	1353.00830078125	-197.3181915283203	-480.5726318359375	1271.956665039062	-144.8977203369141	-701.5169677734375	1232.760131835938	-136.6033325195312	-614.6815795898438	1300.79541015625	-289.1611633300781	-497.9107666015625	1342.83935546875	-323.6651306152344	-487.3482055664062	1216.822387695312	-384.7333679199219	-470.1201171875	1006.903625488281	-407.57421875	-561.6183471679688	997.9063720703125	-372.2481079101562	-397.7200622558594	817.903076171875	-348.6622009277344	-467.7756958007812	780.3330688476562	-399.2666931152344	-455.6168518066406	923.412841796875	-403.5861511230469	-396.2940979003906	661.8036499023438	-330.4188842773438	-444.2040100097656	726.9119873046875	-388.58984375	-385.2185974121094	739.5602416992188	-362.9471130371094	-622.6707763671875	1344.16357421875	-38.12125396728516	-658.9948120117188	1276.551879882812	9.196743011474609	-666.1926879882812	1007.606201171875	51.04742050170898	-707.2901611328125	991.4459228515625	1.458448648452759	-550.8350219726562	808.892822265625	39.11941528320312	-635.0950317382812	783.2241821289062	66.19914245605469	-661.5211791992188	952.596923828125	57.70082855224609	-546.5765380859375	648.3884887695312	34.43632507324219	-540.2224731445312	713.5911254882812	62.22407913208008	-611.0748291015625	709.7616577148438	69.38726806640625	-603.9114379882812	1507.551513671875	-105.0946960449219	-436.563232421875	1562.986328125	-200.7912445068359	-480.3786315917969	1564.03466796875	-81.21035766601562	-562.709716796875	1501.308349609375	-258.9955749511719	-457.9582824707031	874.8974609375	-334.5852355957031	-649.192138671875	848.5542602539062	-8.140008926391602	-528.4634399414062	892.447021484375	-14.38671684265137	-418.9676208496094	911.923828125	-228.9894256591797	-327.4093933105469	485.5496826171875	-242.7725677490234	-368.1023559570312	631.6530151367188	-285.1518859863281	-279.1490783691406	50.41259765625	-234.7126007080078	-300.6683044433594	335.3975830078125	-245.9105072021484	-138.8264617919922	99.88465118408203	-105.8323822021484	-212.3684844970703	75.9490966796875	-100.7024612426758	-179.7076263427734	68.96099090576172	-200.9627227783203	-344.0478820800781	40.00777435302734	-193.7645111083984	-661.0530395507812	464.4295959472656	-76.72071838378906	-633.3993530273438	717.4688720703125	-2.717662334442139	-795.2863159179688	59.42555236816406	-196.3108062744141	-676.4512939453125	321.8962097167969	-116.396842956543	-599.0986328125	40.98193740844727	-146.8725280761719	-640.9774780273438	46.68918991088867	-211.0398864746094	-701.5717163085938	46.10978698730469	-134.4453735351562	-824.15673828125	59.33087921142578	-261.3942565917969	
